<svg id="圖層_1" data-name="圖層 1" xmlns="http://www.w3.org/2000/svg" viewBox="0 0 250 350"><defs><style>.cls-1{fill:#cd9635;}</style></defs><path class="cls-1" d="M50.16,322.81a88.68,88.68,0,0,1-4.39,20.3l-6.86-3.21a82.39,82.39,0,0,0,4.4-19.29ZM70.6,316l-6.51,2.86c-.29-1.59-.61-3-1-4.31a200.37,200.37,0,0,1-22,4.53l-2-6.24q7.16-6.24,14.32-18.55A121.75,121.75,0,0,1,41.24,296l-1-7.07q7.72-9.22,13-24.79l7.07,3.26q-4.6,12.43-10.76,19.9A57.3,57.3,0,0,0,58,286q1.32-2.46,5-10.55l7.29,3.34Q60,300,50.16,310.37a92.49,92.49,0,0,0,10.9-2.59A30.13,30.13,0,0,0,59.35,303l6.11-2.6Q69.68,310.68,70.6,316Zm-9.71,23.12-7,1.36q-.44-11.87-1.8-17.54l6.51-1.45A127.3,127.3,0,0,1,60.89,339.07Zm8.87-7-5.84,2.06a93.93,93.93,0,0,0-2.51-12.7L67,320A49.12,49.12,0,0,1,69.76,332.08Zm10.73-12.7a68.63,68.63,0,0,1-5.58,21.49l-6.38-3.52q3.69-8.18,5.41-20.61Zm33.31-6.59H72.31V270.42h11a40.09,40.09,0,0,0,3-6.5l8.22,1.54a30.73,30.73,0,0,1-2.29,5H113.8Zm-7.83-6.9V277.23H80.22v28.66Zm-.74-7.12-4.4,4.83q-3.21-3.37-4.87-5a58.23,58.23,0,0,1-5.85,6.55l-4.57-4a44.74,44.74,0,0,0,5.76-6.68q-1.41-1.41-2.07-2-1.53,1.94-4.61,5.23l-4.13-4.31a46.93,46.93,0,0,0,4-4.48q-1.41-1.1-3.6-2.64L85,281.41a30.53,30.53,0,0,1,3,2.15,54,54,0,0,0,2.33-5l5.32,2.81-2.94,5.67a20.92,20.92,0,0,1,2.15,1.8,35.53,35.53,0,0,0,4-7.69l5.23,2.81a56.37,56.37,0,0,1-4.52,8.92Zm2.55,31.42c-.36,3.87-.88,6.58-1.59,8.13a6.32,6.32,0,0,1-3.12,3.29q-2.05,1-8.13,1c-2.54,0-4.64-.06-6.28-.17a6.63,6.63,0,0,1-4.28-2,6.13,6.13,0,0,1-1.83-4.59V316.65H90.2V333.4a1.84,1.84,0,0,0,.92,1.84c.62.3,2.32.44,5.1.44a4.77,4.77,0,0,0,3-.66,4.71,4.71,0,0,0,1.14-2.59,24.15,24.15,0,0,0,.4-4.7Zm-5.15-5.41-6.46,3a60.38,60.38,0,0,0-4.26-10.68l6.42-2.46A65.1,65.1,0,0,1,102.63,324.78Zm16.13,9.89-6.33,3.87a88.86,88.86,0,0,0-6.63-17.84l6.28-3.78Q117.54,328.6,118.76,334.67Z"/><path class="cls-1" d="M211.35,331.24a19,19,0,0,1-2.37,7.54,7.25,7.25,0,0,1-4.07,3.47q-2.31.64-10.66.64-11.42,0-14.21-.9t-2.79-5.34v-5.93H166.7a16.68,16.68,0,0,1-7.47,8.83q-5.53,3.34-23.55,4.22l-2.82-7q12.44-.18,18.2-1.59c3.83-.93,6.21-2.41,7.12-4.43h-14V301h56v29.71H185v3.42a2.06,2.06,0,0,0,.88,2q.88.47,6.64.46c4.77,0,7.72-.19,8.85-.59s2-3,2.53-7.71Zm-40-60.55H160.07v4h9V288h-9v4h11.16v5.49H136.29V265.37h35Zm-18.9,4v-4h-8.48v4Zm9.18,8.35v-3.47H143.94v3.47Zm-9.18,9v-4h-8.48v4Zm39.68,17.18v-3.12H152v3.12Zm0,8.13v-3.34H152v3.34Zm0,8.09v-3.26H152v3.26ZM210.38,273H182.3a37.33,37.33,0,0,1-6.77,7.91l-5.31-4.66q5.53-4.49,8.92-13.14l7,1.89a9.88,9.88,0,0,1-1.1,2.68h25.31Zm-2,24.65H173.47V283.56h34.94ZM184,292.75v-4.18h-3.43v4.18Zm21.75-12.26H180.85V276h24.92Zm-13.14,12.26v-4.18h-3.17v4.18Zm8.83,0v-4.18H198.3v4.18Z"/><polygon class="cls-1" points="185.79 0 64.21 0 26.62 129.78 223.38 129.78 185.79 0"/><path class="cls-1" d="M141.55,148.61H102.2c1.89,19.54-9,29.13-17.89,43.43C74.76,207.37,77,228.5,85.5,240.58h72.76c8.46-12.08,10.74-33.21,1.2-48.54C150.55,177.74,139.67,168.15,141.55,148.61Z"/></svg>