<svg id="圖層_1" data-name="圖層 1" xmlns="http://www.w3.org/2000/svg" viewBox="0 0 250 350"><defs><style>.cls-1{fill:#cd9635;}</style></defs><rect class="cls-1" width="250" height="30"/><polygon class="cls-1" points="15.21 229.57 45.21 229.57 45.21 74.28 45.21 41.07 15.21 41.07 15.21 229.57"/><polygon class="cls-1" points="205 229.57 235 229.57 235 74.28 235 41.07 205 41.07 205 229.57"/><rect class="cls-1" x="54.03" y="41.07" width="141.95" height="60"/><path class="cls-1" d="M69.59,317Q60,324.68,44.14,330.87l-4.61-6.59A89.29,89.29,0,0,0,63.22,312Zm48.51-7.38H83v22.24H75V309.6H40V303H75v-4.79H48.54v-29.4h24.3V253.57H81v4.13h31.34v6.11H81v4.88h28.3v29.49H83V303H118.1Zm-16.74-29.05V275H56.62v5.58Zm0,11.34V286.4H56.62v5.49Zm17.4,32.65-4.17,6.51A135.52,135.52,0,0,0,88,318.52l5.05-6Q109.59,318.44,118.76,324.54Z"/><path class="cls-1" d="M211.35,296.29H176.54V324a7.19,7.19,0,0,1-1.69,4.81,7.49,7.49,0,0,1-3.75,2.55,41.7,41.7,0,0,1-8.53.55q-3.3,0-6.55-.18l-2.37-7.82c3.54.26,6.3.39,8.26.39,2.73,0,4.46-.19,5.21-.57a2.35,2.35,0,0,0,1.12-2.33V296.29h-35v-7.83h35v-11a123.66,123.66,0,0,0,20.43-14.2H143.5v-7.91h58.05v7.91a171.44,171.44,0,0,1-25,18.9v6.28h34.81Z"/></svg>