<svg id="圖層_1" data-name="圖層 1" xmlns="http://www.w3.org/2000/svg" viewBox="0 0 250 350"><defs><style>.cls-1{fill:#926a1f;}</style></defs><rect class="cls-1" x="-0.98" width="250.98" height="30"/><path class="cls-1" d="M214.23,111.25H0V240.58H35.77V171.36H214.23v69.22H250V111.25ZM124,153.46a11.7,11.7,0,1,1,11.7-11.69A11.69,11.69,0,0,1,124,153.46Z"/><path class="cls-1" d="M-.24,41.07v60.11H250V41.07ZM124.27,82.82A11.7,11.7,0,1,1,136,71.13,11.7,11.7,0,0,1,124.27,82.82Z"/><path class="cls-1" d="M64.31,301.27l-4.87,5.41Q56.8,300,56.27,299v43.9H49V303a114.25,114.25,0,0,1-6.46,17.09l-3.87-8.44Q43.48,303,48,286.42H39.44V279H49V264.58h7.29V279h6.07v7.38H56.27v2A99.8,99.8,0,0,1,64.31,301.27Zm53.88,40.43H65.46V265.54h51.33v6.2H99.12v3.43h14.06v12.26H99.12v3.21H117V296H74.73v-5.31H91.82v-3.21H77.63V275.17H91.82v-3.43H72.66v63.63h45.53Zm-4.83-16.92h-24l3.42,3a96.52,96.52,0,0,1-14.94,6.32l-4-5.05a69.57,69.57,0,0,0,12-4.31H77.81v-26h35.55ZM91.82,282.9v-3.2H85v3.2Zm14.24,23.34v-2.73H85.19v2.73Zm0,6.81v-2.68H85.19v2.68Zm0,6.68v-2.68H85.19v2.68Zm10.42,9-2.86,5.4a113.86,113.86,0,0,0-15.56-2.9l3-5.75A110.14,110.14,0,0,1,116.48,328.74ZM106,282.9v-3.2H99.12v3.2Z"/><path class="cls-1" d="M211.35,307.29H176.54V335a7.17,7.17,0,0,1-1.69,4.81,7.36,7.36,0,0,1-3.75,2.55,41,41,0,0,1-8.53.55q-3.3,0-6.55-.17l-2.37-7.83c3.54.27,6.3.4,8.26.4,2.73,0,4.46-.19,5.21-.57a2.36,2.36,0,0,0,1.12-2.33V307.29h-35v-7.82h35v-11a124.18,124.18,0,0,0,20.43-14.19H143.5v-7.91h58.05v7.91a172.15,172.15,0,0,1-25,18.9v6.28h34.81Z"/></svg>