<svg id="圖層_1" data-name="圖層 1" xmlns="http://www.w3.org/2000/svg" viewBox="0 0 250 350"><defs><style>.cls-1{fill:#cd9635;}</style></defs><rect class="cls-1" x="57.23" width="134.85" height="69.28"/><polygon class="cls-1" points="194.1 79.2 55.21 79.2 24.66 101.07 224.66 101.07 194.1 79.2"/><path class="cls-1" d="M67.61,292.9l-5.67,5.54a79.45,79.45,0,0,0-4-8.53V332H50V296.29A112.26,112.26,0,0,1,42.61,310l-4-8.84Q47.83,287.24,49.81,277H39.53v-7.56H50V253.57H57.9v15.82h8.83V277H57.9v1.27A140.29,140.29,0,0,1,67.61,292.9Zm50.23.53h-6v30.85a8.72,8.72,0,0,1-2,5.73q-2,2.4-8.85,2.4a45.42,45.42,0,0,1-6-.4l-1.89-7.07,9.53-.09a1.27,1.27,0,0,0,.88-.57,1.61,1.61,0,0,0,.49-1V293.43H68.45v-7.29h49.39Zm.35-14.59-4.48,6.37q-7.65-5.79-20.88-10.76-7.38,7.59-19.9,10.32l-3.52-6.9q15.39-3.21,18.81-10.72H70.51v-7.29h18.9l.35-6.11,7.65.17q0,3.08-.27,5.94H116v7.29h-20l-.31.7Q110.15,273.13,118.19,278.84ZM97.05,321.07H72.93V299.19H97.05Zm-7.55-7v-7.73H80.4V314Z"/><path class="cls-1" d="M211.35,296.29H176.54V324a7.19,7.19,0,0,1-1.69,4.81,7.49,7.49,0,0,1-3.75,2.55,41.7,41.7,0,0,1-8.53.55q-3.3,0-6.55-.18l-2.37-7.82c3.54.26,6.3.39,8.26.39,2.73,0,4.46-.19,5.21-.57a2.35,2.35,0,0,0,1.12-2.33V296.29h-35v-7.83h35v-11a123.66,123.66,0,0,0,20.43-14.2H143.5v-7.91h58.05v7.91a171.44,171.44,0,0,1-25,18.9v6.28h34.81Z"/><rect class="cls-1" x="107.88" y="21.09" width="29.43" height="204.11" transform="translate(245.75 0.55) rotate(90)"/><polygon class="cls-1" points="15.21 229.57 45.21 229.57 45.21 129.77 45.21 108.43 15.21 108.43 15.21 229.57"/><polygon class="cls-1" points="205 229.57 235 229.57 235 129.77 235 108.43 205 108.43 205 229.57"/></svg>