<?xml version="1.0" encoding="utf-8"?>
<!-- Generator: Adobe Illustrator 25.0.0, SVG Export Plug-In . SVG Version: 6.00 Build 0)  -->
<svg version="1.1" id="圖層_1" xmlns="http://www.w3.org/2000/svg" xmlns:xlink="http://www.w3.org/1999/xlink" x="0px" y="0px"
	 viewBox="0 0 493.9 123.8" style="enable-background:new 0 0 493.9 123.8;" xml:space="preserve">
<style type="text/css">
	.st0{fill:#FFFFFF;}
	.st1{enable-background:new    ;}
</style>
<g>
	<path class="st0" d="M54.6,76c0-5.1,0-9.7,0-14.2c0-1.7-0.4-3-2.4-3.1S50,60.2,50,61.8v25.1c-1.9-1.2-3.5-2.2-5-3.2
		s-2.8-1.9-4.3-2.8c-1.7-1-3.2-0.9-3.9,0.4C36,82.9,36.6,84,38,84.9c3.6,2.3,7.2,4.7,10.7,7.1c0.6,0.4,1,1,1.2,1.6
		c0.1,5.6,0.1,11.1,0.1,16.8H16.4c0-0.6-0.1-1.2-0.1-1.8v-64c-0.1-1.2,0.5-2.3,1.6-2.8c16.3-9.3,32.6-18.6,48.9-28
		c1-0.7,2.3-0.7,3.3-0.1c16.3,9.4,32.6,18.7,48.9,28c1.1,0.5,1.8,1.6,1.7,2.8c0,25,0,38.3,0,63.3v2.7H54.8c0-0.7-0.1-1.3-0.1-1.9
		c0-8.1-0.1-16.2,0-24.2c0.1-1.1,0.5-2.1,1.3-2.9c2.9-3,5.9-5.8,8.9-8.6c1.2-1.1,1.7-2.3,0.6-3.7c-1-1.2-2.4-1.2-3.9,0.2
		C59.4,71.4,57.3,73.5,54.6,76z"/>
	<g class="st1">
		<path class="st0" d="M148.4,92.1l-2.2,3c-1.2-1.3-2.6-2.6-4.3-3.9v11.1h-3.8v-9.8c-2.2,3-4.6,5.4-7.2,7.2l-1.8-3.3
			c3.8-2.8,6.6-5.8,8.5-9H130v-3.6h8.1v-4h3.8v4h5.6v3.6H142C144.3,88.8,146.4,90.3,148.4,92.1z M167.5,77.8l-2,3.5
			c-3.8-2.6-8.7-5-14.7-7.2v7.5h-3.9v-8.5c-4.8,3.8-9.8,6.6-15.1,8.4l-1.6-3.5c5.5-1.6,10.4-4.1,14.5-7.5h-13.8v-3.4h16v-3.4h3.9
			v3.4h15.9v3.4h-15.9C157.7,72.9,163.3,75.4,167.5,77.8z M168.4,96.3l-1.9,3.6c-3-2.3-5.5-4.9-7.2-7.6v10.1h-3.9V92.3
			c-1.9,2.9-4.4,5.4-7.4,7.7l-2-3.4c4.1-2.6,7-5.7,8.8-9.1h-5.4v-3.6h5.9v-4h3.9v4h8.1v3.6h-7.7C161.5,90.5,164.4,93.4,168.4,96.3z"
			/>
		<path class="st0" d="M183.3,80.1l-2.4,3.2c-2.2-2-4.7-3.9-7.6-5.6l2.3-3.2C179,76.5,181.5,78.3,183.3,80.1z M183.8,87.3
			c-2,5.9-4.3,10.9-6.9,15l-3.3-2.4c2.5-4.1,4.8-8.9,6.7-14.4L183.8,87.3z M184.3,70.1l-2.9,2.9c-2-2.3-4.6-4.5-7.6-6.8l2.8-2.8
			C180.1,65.9,182.7,68.2,184.3,70.1z M212,78.6h-12.2v6.1h10v17.4h-4v-2.2H190v2.2h-4V84.8h9.9v-6.1h-12.2V75h12.2v-5.8
			c-3.5,0.3-6.8,0.5-9.9,0.6l-1.4-3.7c9.2,0,17.3-0.9,24.1-2.8l2,3.2c-3,0.9-6.6,1.7-10.8,2.2V75H212V78.6z M205.9,96.2v-7.7H190
			v7.7H205.9z"/>
		<path class="st0" d="M256.5,93.9l-2.3,3.3c-6.8-5.3-11.9-11.6-15.1-18.9v23.9h-4V78.3c-3.1,6.9-8.1,13.1-15,18.7l-2.6-3.1
			c7.1-5.5,12.2-11.7,15.3-18.6h-15v-3.9h17.3v-7.7h4v7.7h17.1v3.9h-14.7C244.4,82.2,249.4,88.4,256.5,93.9z"/>
		<path class="st0" d="M300.3,100.7h-38.5v-4H279V69.3h-15.3v-4.1h34.9v4.1h-15.3v27.4h17.1v4H300.3z"/>
	</g>
	<g class="st1">
		<path class="st0" d="M322.6,84.2c-0.8,1.4-1.7,2.8-2.6,4v13.6h-1.4V90.1c-1.1,1.1-2,2.1-2.9,2.9l-1-1.1c2.4-1.9,4.6-4.6,6.7-8.2
			L322.6,84.2z M321.8,78.7c-2.1,2.7-4.1,4.7-5.9,5.9l-0.9-1.1c1.9-1.2,3.8-3,5.6-5.5L321.8,78.7z M338.6,100.5l-0.5,1.4
			c-3.1-0.7-5.8-1.7-8-3c-2.6,1.4-5.4,2.3-8.5,2.9l-0.7-1.3c3-0.5,5.6-1.4,7.8-2.5c-1.4-1.1-2.6-2.2-3.5-3.3
			c-0.9,0.7-1.9,1.4-2.8,1.9l-1-1c1.3-0.7,2.2-1.3,2.9-1.9c-0.4-0.5-0.8-1-1.1-1.4l1.1-0.9c0.2,0.3,0.6,0.8,1.1,1.3
			c0.9-0.7,1.6-1.7,2.2-2.9l-4.5,0.2l-0.3-1.4c2.2-0.7,4.5-2,7-3.7l-6,0.3l-0.2-1.4c2.4-1.1,4.7-3,7-5.9l1.3,0.5
			c-1.8,2.3-3.6,4.1-5.6,5.3c1.4,0,3.2-0.2,5.5-0.4c1.2-1,2.4-2,3.5-3l1.4,0.6c-3.4,3.3-6.9,5.8-10.3,7.5c2.2,0,5.2-0.3,9.1-0.7
			c-0.5-0.7-1-1.4-1.7-2.2l1.2-0.7c1.7,2,3,3.9,3.9,5.7l-1.2,0.7c-0.4-0.8-0.8-1.5-1.3-2.2c-2.1,0.3-4.5,0.5-7,0.6
			c-0.5,1.1-1,2-1.4,2.5h8.4v1.3c-1.7,2-3.3,3.5-4.7,4.5C334,99.3,336.4,100.1,338.6,100.5z M334.2,93.6h-7.6
			c-0.1,0.1-0.1,0.2-0.2,0.3c1.2,1.4,2.4,2.5,3.7,3.4C331.4,96.4,332.8,95.2,334.2,93.6z"/>
		<path class="st0" d="M365.1,101.6h-22.8v-1.2h10.8v-1.6h-9.2v-1.1h9.2v-1.5c-1.3,0-4,0-8,0l-0.2-1.1c1.6-0.1,3.1-0.7,4.5-1.9h-3.6
			v-1.1h16.1v1.1H360c0.8,0.8,1.7,1.8,2.7,3l-1,0.8c-0.3-0.5-0.6-0.9-1-1.2c-2.9,0.1-5,0.2-6.3,0.3v1.5h9.2v1.1h-9.2v1.6h10.7
			L365.1,101.6L365.1,101.6z M365.1,80.8h-10.6v1.4h9.5v1.1h-20.4v-1.1h9.5v-1.4h-10.7v-1.2h10.7v-1.2h1.4v1.2h10.6V80.8z
			 M364.7,93.3h-1.4v-2.5h-19.1v2.4h-1.4v-3.6h21.8v3.7H364.7z M362.2,88.3h-16.8v-3.7h16.8V88.3z M360.8,87.2v-1.4h-14v1.4H360.8z
			 M359.6,94.9c-0.4-0.5-0.7-0.8-0.9-1l0.6-0.6h-7.9c-1,0.9-2,1.6-3,2C350.5,95.3,354.2,95.2,359.6,94.9z"/>
		<path class="st0" d="M380.5,81.4h-7.6c-0.9,1.1-1.9,2.1-3,3l-1.1-0.9c1.9-1.6,3.4-3.4,4.5-5.5l1.3,0.5c-0.2,0.4-0.5,0.9-0.9,1.6
			h6.7v1.3H380.5z M391.8,90.4h-1.4v-3.8H371v3.8h-1.4v-5h10.2c-0.1-0.4-0.3-0.9-0.6-1.5l1.2-0.4c0.4,0.6,0.7,1.2,0.9,1.9h10.5
			L391.8,90.4L391.8,90.4z M389.3,100.7h-15.2v1.1h-1.4V88.7h15.8v4.6h-14.4v2.1h15.2V100.7z M387.1,92v-2.1h-13V92H387.1z
			 M387.9,99.4v-2.6h-13.8v2.6H387.9z M377.7,84.1l-1.2,0.5c-0.3-0.6-0.8-1.4-1.5-2.2l1.2-0.5C376.8,82.6,377.3,83.3,377.7,84.1z
			 M392.4,81.4h-8.6c-0.6,0.7-1.3,1.4-2.1,2.1l-1.1-0.8c1.9-1.9,3.2-3.4,3.7-4.6l1.3,0.5c-0.2,0.5-0.5,1-0.9,1.5h7.7V81.4z
			 M388.5,84.2l-1.2,0.5c-0.6-1.2-1.1-1.9-1.4-2.3l1.3-0.5C387.7,82.7,388.2,83.5,388.5,84.2z"/>
		<path class="st0" d="M403.9,95.4c-1.9,1.1-4.5,2.5-7.6,4l-0.6-1.2c1.7-0.8,2.9-1.4,3.8-1.9v-7.5h-3.1v-1.3h3.1v-6.1h-3.6v-1.3h8
			v1.3h-3.1v6.2h2.8v1.3h-2.8v6.7c0.9-0.5,1.9-1,2.9-1.6L403.9,95.4z M419.4,101.3h-15.5V100h7v-3.9h-6v-1.3h6v-3.3h-5.8V78.9h13
			v12.5h-5.9v3.3h6.2V96h-6.2v3.9h7.1L419.4,101.3L419.4,101.3z M410.9,84.5v-4.2h-4.4v4.2H410.9z M410.9,90.1v-4.3h-4.4v4.3H410.9z
			 M416.8,84.5v-4.2h-4.5v4.2H416.8z M416.8,90.1v-4.3h-4.5v4.3H416.8z"/>
		<path class="st0" d="M431.4,96c-2,1.7-4.6,3.1-7.7,4.2l-0.9-1.2c3.5-1.3,6-2.6,7.4-3.9L431.4,96z M445.6,93.9l-1.2,0.8
			c-0.4-0.6-0.9-1.3-1.6-2.1c-3.5,0.4-5.9,0.6-7.3,0.7v6.8c0,0.4-0.1,0.7-0.4,1s-0.6,0.4-0.9,0.5s-0.9,0.1-1.8,0.1
			c-0.5,0-0.9,0-1.4,0l-0.6-1.4c0.5,0,1,0,1.6,0c0.9,0,1.5,0,1.7-0.1s0.3-0.2,0.3-0.6v-6.2c-4,0.2-6.9,0.4-8.9,0.5l-0.4-1.2
			c3.3-1.2,6.5-2.6,9.7-4.3c-3.1,0.2-5.9,0.3-8.3,0.4l-0.4-1c4.1-1.5,7.3-3.3,9.8-5.6l1.3,0.8c-1.9,1.6-4.1,3.1-6.7,4.3
			c0.9,0,1.7-0.1,2.5-0.1s1.6-0.1,2.4-0.2c1.5-0.1,2.3-0.2,2.5-0.3c1.2-0.7,2.3-1.5,3.4-2.4l1.3,0.9c-2.9,2.2-7.2,4.6-13,7.2
			c4.4-0.2,8.6-0.5,12.6-1c-0.4-0.5-1.1-1.1-2.1-2l1.2-0.8C442.9,90.5,444.5,92.3,445.6,93.9z M437.4,78.9
			c-2.5,2.3-6.3,4.1-11.3,5.4l-1.1-1.2c5-1.1,8.7-2.7,11.2-4.9L437.4,78.9z M446.3,99.1l-0.9,1.2c-1.9-1.6-4.2-3-6.8-4.2l0.9-1.1
			C442.1,96.2,444.4,97.6,446.3,99.1z"/>
		<path class="st0" d="M452.8,95.4c-0.5,2.8-1,4.9-1.6,6.3l-1.3-0.5c0.7-1.8,1.3-3.8,1.6-6.2L452.8,95.4z M459.3,93.8l-1.2,0.4
			c-0.1-0.6-0.3-1.1-0.4-1.6c-2.4,0.7-4.7,1.4-7.1,1.9l-0.4-1.2c1.9-1.9,3.7-4.2,5.3-6.7c-1.4,0.3-3,0.6-4.8,0.8l-0.4-1.3
			c2.1-2.7,3.5-5.3,4.5-7.9l1.3,0.5c-0.8,2.3-2.1,4.7-3.9,7.2c1.4-0.2,2.8-0.4,4.2-0.8c0.3-0.5,0.7-1.2,1.1-2l1.2,0.5
			c-1.4,2.9-3.5,6-6.2,9.1c1.1-0.2,2.7-0.6,4.7-1.3c-0.2-0.5-0.4-1.1-0.7-1.7l1.2-0.5C458.5,91.1,459.1,92.7,459.3,93.8z
			 M456.1,100.6l-1.4,0.3c-0.1-2-0.3-3.8-0.9-5.5l1.4-0.2C455.8,97.7,456,99.5,456.1,100.6z M459.2,98.5l-1.3,0.4
			c-0.2-1.2-0.6-2.5-1.1-3.8l1.2-0.4C458.5,95.9,458.9,97.1,459.2,98.5z M473.3,82.6H465c-1.2,2.5-2.4,4.5-3.6,6.1
			c2.7-0.1,5.5-0.4,8.4-0.9c-0.6-0.9-1.3-1.7-2-2.5l1.2-0.8c1.7,2,3,3.9,4,5.6l-1.1,0.8c-0.4-0.7-0.8-1.4-1.2-2l-2.5,0.4v10.1
			c0,0.4,0.2,0.6,0.6,0.6h1.9c0.3,0,0.5-0.1,0.6-0.2s0.3-0.7,0.4-1.6s0.2-2,0.2-3.2l1.4,0.5c0,2-0.2,3.4-0.4,4.2
			c-0.2,0.7-0.6,1.2-1,1.5c-0.4,0.2-1.2,0.3-2.2,0.3c-1.1,0-1.8-0.1-2.2-0.4c-0.4-0.3-0.6-0.7-0.6-1.4v-10c-1.5,0.2-2.4,0.3-2.8,0.3
			c0,5.4-1.7,9.4-5,12l-0.9-1c1.5-1.2,2.6-2.6,3.4-4.2c0.8-1.7,1.2-3.9,1.2-6.7c-0.4,0.1-1.4,0.1-3,0.2l-0.3-1.2
			c1.4-1.3,2.8-3.4,4.2-6.3H459v-1.3h5.2c0.3-0.7,0.7-1.8,1.3-3.2l1.3,0.4c-0.5,1.2-0.8,2.2-1.1,2.8h7.7v1.1H473.3z"/>
	</g>
	<rect x="113.2" y="109.5" class="st0" width="361.1" height="1"/>
</g>
<path class="st0" d="M473.9,112c2.1,0,3.8-1.7,3.8-3.8c0-2.1-1.7-3.8-3.8-3.8c-2.1,0-3.8,1.7-3.8,3.8S471.8,112,473.9,112z"/>
</svg>
