<?xml version="1.0" encoding="UTF-8"?><svg id="a" xmlns="http://www.w3.org/2000/svg" viewBox="0 0 28.35 28.35"><defs><style>.b{font-family:DFLiSong-Bd-HK-BF, DFPLiSong-Bd;font-size:6px;}</style></defs><path d="M9.5,12.34c0,.59,.26,1.12,.67,1.48v.85c0,.18,.15,.33,.33,.33h.67c.18,0,.33-.15,.33-.33v-.32h5.34v.32c0,.18,.15,.33,.33,.33h.67c.18,0,.33-.15,.33-.33v-.85c.41-.37,.67-.89,.67-1.48v-.67H9.5v.67Zm9.68-2.67H10.84v-3.73c0-.23,.31-.36,.47-.2l.29,.29c-.18,.56-.06,1.1,.25,1.49-.13,.13-.13,.35,0,.48l.24,.24c.13,.13,.34,.13,.47,0l2.2-2.2c.13-.13,.13-.34,0-.47l-.24-.24c-.13-.13-.34-.13-.47,0-.39-.31-.93-.43-1.5-.24l-.29-.29c-.3-.3-.72-.47-1.14-.47-.89,0-1.61,.72-1.61,1.61v3.73h-.33c-.18,0-.33,.15-.33,.33v.67c0,.18,.15,.33,.33,.33h10.01c.18,0,.33-.15,.33-.33v-.67c0-.18-.15-.33-.33-.33Z"/><text class="b" transform="translate(2.25 21.9)"><tspan x="0" y="0">折抵50元</tspan></text></svg>