<?xml version="1.0" encoding="utf-8"?>
<!-- Generator: Adobe Illustrator 26.1.0, SVG Export Plug-In . SVG Version: 6.00 Build 0)  -->
<svg version="1.1" id="a" xmlns="http://www.w3.org/2000/svg" xmlns:xlink="http://www.w3.org/1999/xlink" x="0px" y="0px"
	 viewBox="0 0 28.4 28.4" style="enable-background:new 0 0 28.4 28.4;" xml:space="preserve">
<style type="text/css">
	.st0{fill:#FFFFFF;}
	.st1{font-family:'DFLiSong-Bd-HK-BF';}
	.st2{font-size:6px;}
</style>
<text transform="matrix(1 0 0 1 1.1018 21.9)" class="st0 st1 st2">折抵500元</text>
<path class="st0" d="M11.3,10.4c0.9,0,1.6-0.7,1.6-1.6s-0.7-1.6-1.6-1.6S9.8,8,9.8,8.8S10.5,10.4,11.3,10.4z M18.6,7.2h-4.7
	c-0.2,0-0.3,0.1-0.3,0.3V11H9.1V5.7c0-0.2-0.1-0.3-0.3-0.3H8.2C8,5.4,7.9,5.5,7.9,5.7v8.2c0,0.2,0.1,0.3,0.3,0.3h0.6
	c0.2,0,0.3-0.1,0.3-0.3v-0.9h10.1v0.9c0,0.2,0.1,0.3,0.3,0.3h0.6c0.2,0,0.3-0.1,0.3-0.3V9.1C20.5,8.1,19.6,7.2,18.6,7.2z"/>
</svg>
