<?xml version="1.0" encoding="UTF-8"?><svg id="a" xmlns="http://www.w3.org/2000/svg" viewBox="0 0 28.35 28.35"><defs><style>.b{font-family:DFLiSong-Bd-HK-BF, DFPLiSong-Bd;font-size:6px;}</style></defs><text class="b" transform="translate(3.54 21.9)"><tspan x="0" y="0">折抵5元</tspan></text><path d="M18.08,4.45c.02-.06,.08-.1,.15-.1s.13,.04,.15,.1l.29,.78,.78,.29c.06,.02,.1,.08,.1,.15s-.04,.13-.1,.15l-.78,.29-.29,.78c-.02,.06-.08,.1-.15,.1s-.13-.04-.15-.1l-.29-.78-.8-.29c-.06-.02-.08-.08-.08-.15s.02-.13,.08-.15l.8-.29,.29-.78Zm-3.13,1.91c.26-.26,.68-.26,.93,0l.59,.59,.36-.36c.13-.13,.34-.13,.47,0,.13,.13,.13,.34,0,.47l-.36,.36,.59,.59c.26,.26,.26,.68,0,.93l-.22,.23c.16,.45,.25,.95,.25,1.46,0,2.38-1.93,4.3-4.3,4.3s-4.3-1.93-4.3-4.3,1.93-4.3,4.3-4.3c.51,0,1,.09,1.46,.25l.23-.23Zm-4.02,4.11c0-1.19,.98-2.15,2.15-2.15h.17c.2,0,.33-.15,.33-.33s-.13-.33-.33-.33h-.17c-1.53,0-2.81,1.26-2.81,2.81v.17c0,.18,.17,.33,.33,.33,.2,0,.33-.15,.33-.33v-.17Z"/></svg>