<?xml version="1.0" encoding="UTF-8"?><svg id="a" xmlns="http://www.w3.org/2000/svg" viewBox="0 0 24.04 19.84"><defs><style>.b,.c{fill:#fff;}.c{font-family:DFLiSong-Bd-HK-BF, DFPLiSong-Bd;font-size:6px;}</style></defs><text class="c" transform="translate(0 18.09)"><tspan x="0" y="0">折抵10元</tspan></text><path class="b" d="M16,7.36l-.29-.7c-.1-.25-.33-.4-.57-.4h-6.97c-.25,0-.47,.16-.57,.4l-.29,.7c-.09,.22-.07,.47,.04,.67,.12,.2,.32,.32,.51,.32v2.44c0,.19,.14,.35,.31,.35h.63c.17,0,.31-.16,.31-.35v-2.44h5.04v2.44c0,.19,.14,.35,.31,.35h.61c.17,0,.31-.16,.31-.35l.04-2.44c.21,0,.41-.12,.53-.32s.13-.45,.04-.67ZM9.43,2.78c0-.64,.32-1.18,.79-1.5V5.57h.94V1.04h.94V5.57h.94V1.29c.49,.3,.79,.86,.79,1.5v2.78h.94V2.78c0-1.54-1.13-2.78-2.52-2.78h-1.26c-1.37,0-2.5,1.25-2.5,2.78v2.78h.94l-.02-2.78Z"/></svg>