<?xml version="1.0" encoding="UTF-8"?><svg id="a" xmlns="http://www.w3.org/2000/svg" viewBox="0 0 24.04 18.58"><defs><style>.b{font-family:DFLiSong-Bd-HK-BF, DFPLiSong-Bd;font-size:6px;}</style></defs><text class="b" transform="translate(0 16.83)"><tspan x="0" y="0">再接再厲</tspan></text><path d="M15.48,1.4h-1.05V.7c0-.39-.31-.7-.7-.7H7.42c-.39,0-.7,.31-.7,.7v7.71c0,.77,.63,1.4,1.4,1.4h4.91c.77,0,1.4-.63,1.4-1.4v-.7l1.77-.79c.63-.28,1.04-.91,1.04-1.6V3.15c0-.97-.78-1.75-1.75-1.75Zm-5.96,5.96c0,.19-.16,.35-.35,.35s-.35-.16-.35-.35V2.45c0-.19,.16-.35,.35-.35s.35,.16,.35,.35V7.36Zm1.4,0c0,.19-.16,.35-.35,.35s-.35-.16-.35-.35V2.45c0-.19,.16-.35,.35-.35s.35,.16,.35,.35V7.36Zm1.4,0c0,.19-.16,.35-.35,.35s-.35-.16-.35-.35V2.45c0-.19,.16-.35,.35-.35s.35,.16,.35,.35V7.36Zm3.5-2.04c0,.14-.08,.26-.21,.32l-1.19,.53V2.8h1.05c.19,0,.35,.16,.35,.35v2.17Z"/></svg>