<?xml version="1.0" encoding="utf-8"?>
<!-- Generator: Adobe Illustrator 26.1.0, SVG Export Plug-In . SVG Version: 6.00 Build 0)  -->
<svg version="1.1" id="a" xmlns="http://www.w3.org/2000/svg" xmlns:xlink="http://www.w3.org/1999/xlink" x="0px" y="0px"
	 viewBox="0 0 28.4 28.4" style="enable-background:new 0 0 28.4 28.4;" xml:space="preserve">
<style type="text/css">
	.st0{fill:#FFFFFF;}
	.st1{font-family:'DFLiSong-Bd-HK-BF';}
	.st2{font-size:6px;}
</style>
<text transform="matrix(1 0 0 1 5.1018 21.9)" class="st0 st1 st2">免運費</text>
<path class="st0" d="M19.8,13.6h-1.7V5.3c0-0.6-0.5-1.1-1-1.1h-6c-0.6,0-1,0.5-1,1.1v8.3H8.4c-0.2,0-0.3,0.1-0.3,0.3v0.7
	c0,0.2,0.1,0.3,0.3,0.3h11.4c0.2,0,0.3-0.1,0.3-0.3V14C20.1,13.8,20,13.6,19.8,13.6z M16.1,10.3c-0.4,0-0.7-0.3-0.7-0.7
	s0.3-0.7,0.7-0.7s0.7,0.3,0.7,0.7C16.8,10,16.5,10.3,16.1,10.3z"/>
</svg>
