<?xml version="1.0" encoding="UTF-8"?><svg id="a" xmlns="http://www.w3.org/2000/svg" viewBox="0 0 23.86 17.77"><defs><style>.b{font-family:DFLiSong-Bd-HK-BF, DFPLiSong-Bd;font-size:6px;}.b,.c{fill:#fff;}.b,.d{isolation:isolate;}</style></defs><g class="d" transform="translate(0 18.09)"><text class="b" transform="translate(0 16.02)"><tspan x="0" y="0">折抵10元</tspan></text></g><path class="c" d="M15.92,3.88c-.41,0-.75,.43-.75,.97v1.61h-6.99v-1.61c0-.53-.34-.97-.75-.97s-.75,.43-.75,.97v3.88c0,.18,.11,.32,.25,.32h1c.14,0,.24-.14,.24-.32v-.32h7.01v.32c0,.18,.11,.32,.25,.32h1c.14,0,.25-.14,.25-.32v-3.88c0-.53-.34-.97-.75-.97Zm-7.24,.97v.97h6v-.97c0-.78,.43-1.43,1-1.58v-.68c0-1.43-.89-2.58-2-2.58h-4.01c-1.1,0-2,1.16-2,2.58v.68c.58,.15,1.01,.8,1.01,1.58Z"/></svg>